# xmcd
# 
# Track frame offsets:
#     150
#     4790
#     9874
#     17183
#     21305
#     28448
#     33356
#     37315
#     42964
#     53859
#     58639
#     63750
#     68242
#     75263
#     81240
#     88020
#     92186
#     102364
#     113380
#     126880
#     138847
#     148320
#     158691
#     174797
#     183874
#     194050
#     202913
#     208551
#     223276
#     226900
#     231436
#     236837
#     240553
#     246119
#     264029
#     279622
#     304200
# 
# Disc length: 4202
# 
# Revision: 1
# Processed by: cddbd v1.5.2PL0 Copyright (c) Steve Scherf et al.
# Submitted via: fre:ac v1.0.17
# 
DISCID=01106825
DTITLE=Manfred Schmitz - Jugend Album fuer Klavier
DYEAR=2004
DGENRE=Jazz
TTITLE0=Altes Lied
TTITLE1=Simple Serenade II
TTITLE2=Fuer Eileen
TTITLE3=Pausen-Musik
TTITLE4=Little Memory
TTITLE5=Come In
TTITLE6=Blues Day
TTITLE7=Dialog
TTITLE8=Pop Serenade
TTITLE9=Schotten-Rock
TTITLE10=Praeludium and Song
TTITLE11=Swinging
TTITLE12=Chanson Flair
TTITLE13=Play Rock!
TTITLE14=Jazz- Invention in a-Moll
TTITLE15=My Old Movie Blues
TTITLE16=Romanze am Meer
TTITLE17=Prelude melancholique
TTITLE18=intermezzo in Fuenf
TTITLE19=Konzertante Ballade
TTITLE20=La Chanson
TTITLE21=Praeludium Sacrale
TTITLE22=Griechische fantasie
TTITLE23=Rondo a la Dave
TTITLE24=Intermezzo
TTITLE25=Radio Astra
TTITLE26=Praeludium in C-Dur
TTITLE27=Rock Toccata
TTITLE28=Boogie Woogie Power in G
TTITLE29=Hot and Pop
TTITLE30=Rondo Toccata
TTITLE31=Piano Feeling I
TTITLE32=Piano Feeling II
TTITLE33=Meditation
TTITLE34=Fantasie in a-Moll
TTITLE35=Rhapsodische Fantasie
TTITLE36=Konzert-Fantasie
EXTD=YEAR: 2004
EXTT0=
EXTT1=
EXTT2=
EXTT3=
EXTT4=
EXTT5=
EXTT6=
EXTT7=
EXTT8=
EXTT9=
EXTT10=
EXTT11=
EXTT12=
EXTT13=
EXTT14=
EXTT15=
EXTT16=
EXTT17=
EXTT18=
EXTT19=
EXTT20=
EXTT21=
EXTT22=
EXTT23=
EXTT24=
EXTT25=
EXTT26=
EXTT27=
EXTT28=
EXTT29=
EXTT30=
EXTT31=
EXTT32=
EXTT33=
EXTT34=
EXTT35=
EXTT36=
PLAYORDER=
